<?xml version="1.0" encoding="utf-8"?>
<!-- Generator: Adobe Illustrator 19.0.0, SVG Export Plug-In . SVG Version: 6.00 Build 0)  -->
<svg version="1.1" id="Capa_1" xmlns="http://www.w3.org/2000/svg" xmlns:xlink="http://www.w3.org/1999/xlink" x="0px" y="0px"
	 viewBox="0 0 500 500" style="enable-background:new 0 0 500 500;" xml:space="preserve">
<g id="XMLID_1_">
	<g id="XMLID_2_">
		<path id="XMLID_7_" d="M361.8,321.4c-0.2-2.5-0.6-4.5-1.2-5.9c-0.6-1.4-1.3-2.5-2.2-3.3c-0.9-0.8-2-1.3-3.4-1.6l-167.4-57.7
			l-2.7-0.7l2.7-0.9l54.4-18.3l-56.5-19.2l-32.1,11.3c-1.5,0.6-2.8,1.4-3.9,2.5c-1.1,1-1.9,2.5-2.5,4.4c-0.6,1.9-1.1,4.3-1.4,7.3
			c-0.3,3-0.5,6.8-0.5,11.3c0,4.5,0.1,8.3,0.3,11.3c0.2,3,0.6,5.5,1.2,7.5c0.6,2,1.4,3.4,2.5,4.4c1,1,2.4,1.8,4,2.4L346,346.7
			c1,0.3,2,0.6,2.9,0.8c0.9,0.2,1.7,0.4,2.5,0.6c0.8,0.1,1.5,0.3,2.2,0.3c0.7,0.1,1.3,0.1,1.9,0.1c1.2,0,2.2-0.3,3.1-0.8
			c0.8-0.5,1.6-1.4,2.2-2.7c0.6-1.3,1-3,1.2-5.3c0.2-2.3,0.3-5.1,0.3-8.6C362.2,327.1,362.1,323.9,361.8,321.4z M362.8,164.5
			c-0.1-2.3-0.5-4.2-1-5.7c-0.5-1.4-1.2-2.4-2.1-3.1c-0.9-0.6-2-0.9-3.2-0.9c-0.4,0-1,0-1.7,0.1c-0.7,0.1-1.7,0.3-3.1,0.7
			c-1.4,0.4-2.9,0.8-4.8,1.5l-148.3,52.1l57.1,19.2l99.8-33.5c1.4-0.6,2.5-1.2,3.4-1.9c0.9-0.7,1.7-1.7,2.3-3.2s1-3.5,1.3-6.1
			c0.2-2.6,0.4-6.1,0.4-10.5C363,169.7,363,166.8,362.8,164.5z"/>
	</g>
	<g id="XMLID_4_">
		<path id="XMLID_5_" d="M190.9,298.8l-34.2,11.8c-1.3,0.3-2.5,0.8-3.4,1.6c-0.9,0.8-1.7,1.9-2.2,3.3c-0.6,1.4-1,3.4-1.2,5.9
			c-0.2,2.5-0.3,5.8-0.3,9.8c0,3.5,0.1,6.3,0.3,8.6c0.2,2.3,0.6,4,1.2,5.3c0.6,1.3,1.3,2.2,2.2,2.7c0.8,0.5,1.9,0.8,3,0.8
			c0.6,0,1.3,0,1.9-0.1c0.7-0.1,1.4-0.2,2.1-0.3c0.8-0.2,1.6-0.4,2.5-0.6c0.9-0.2,1.9-0.5,2.9-0.8l77.6-28.3L190.9,298.8z
			 M366.6,250.7c0-4.5-0.2-8.3-0.5-11.3c-0.3-3-0.8-5.5-1.4-7.3c-0.6-1.9-1.5-3.3-2.5-4.4c-1.1-1.1-2.3-1.9-3.8-2.5l-193.7-68.1
			c-1.8-0.6-3.4-1.1-4.8-1.5c-1.4-0.4-2.4-0.6-3.1-0.7c-0.7-0.1-1.2-0.1-1.7-0.1c-1.2,0-2.3,0.3-3.2,0.9c-0.9,0.6-1.6,1.6-2.1,3.1
			c-0.5,1.4-0.8,3.3-1,5.7c-0.1,2.3-0.2,5.2-0.2,8.7c0,4.4,0.2,7.9,0.4,10.5c0.2,2.6,0.7,4.7,1.3,6.1s1.4,2.5,2.3,3.2
			c0.9,0.7,2,1.3,3.4,1.9l168.1,56.5l2.7,0.9l-2.7,0.7l-120.9,41.6l52.6,19.2l102.8-37.5c1.7-0.6,3-1.4,4-2.4c1-1,1.9-2.5,2.5-4.4
			c0.6-2,1-4.5,1.2-7.5C366.5,259,366.6,255.2,366.6,250.7z"/>
	</g>
	<g id="XMLID_3_">
		<path id="XMLID_22_" d="M254.3,106.7c81,0,146.7,65.7,146.7,146.7S335.3,400,254.3,400s-146.7-65.7-146.7-146.7
			S173.3,106.7,254.3,106.7 M254.3,90.7c-22,0-43.3,4.3-63.3,12.8c-19.4,8.2-36.8,19.9-51.7,34.9c-14.9,14.9-26.7,32.3-34.9,51.7
			c-8.5,20.1-12.8,41.4-12.8,63.3s4.3,43.3,12.8,63.3c8.2,19.4,19.9,36.8,34.9,51.7c14.9,14.9,32.3,26.7,51.7,34.9
			c20.1,8.5,41.4,12.8,63.3,12.8s43.3-4.3,63.3-12.8c19.4-8.2,36.8-19.9,51.7-34.9c14.9-14.9,26.7-32.3,34.9-51.7
			c8.5-20.1,12.8-41.4,12.8-63.3s-4.3-43.3-12.8-63.3c-8.2-19.4-19.9-36.8-34.9-51.7c-14.9-14.9-32.3-26.7-51.7-34.9
			C297.6,95,276.3,90.7,254.3,90.7L254.3,90.7z"/>
	</g>
</g>
</svg>
