<svg xmlns="http://www.w3.org/2000/svg" viewBox="0 0 500 500"><path d="M361.8 321.4c-.2-2.5-.6-4.5-1.2-5.9-.6-1.4-1.3-2.5-2.2-3.3-.9-.8-2-1.3-3.4-1.6l-167.4-57.7-2.7-.7 2.7-.9L242 233l-56.5-19.2-32.1 11.3c-1.5.6-2.8 1.4-3.9 2.5-1.1 1-1.9 2.5-2.5 4.4-.6 1.9-1.1 4.3-1.4 7.3-.3 3-.5 6.8-.5 11.3 0 4.5.1 8.3.3 11.3.2 3 .6 5.5 1.2 7.5s1.4 3.4 2.5 4.4c1 1 2.4 1.8 4 2.4L346 346.7c1 .3 2 .6 2.9.8.9.2 1.7.4 2.5.6.8.1 1.5.3 2.2.3.7.1 1.3.1 1.9.1 1.2 0 2.2-.3 3.1-.8.8-.5 1.6-1.4 2.2-2.7.6-1.3 1-3 1.2-5.3.2-2.3.3-5.1.3-8.6-.1-4-.2-7.2-.5-9.7zm1-156.9c-.1-2.3-.5-4.2-1-5.7-.5-1.4-1.2-2.4-2.1-3.1-.9-.6-2-.9-3.2-.9-.4 0-1 0-1.7.1s-1.7.3-3.1.7c-1.4.4-2.9.8-4.8 1.5l-148.3 52.1 57.1 19.2 99.8-33.5c1.4-.6 2.5-1.2 3.4-1.9.9-.7 1.7-1.7 2.3-3.2s1-3.5 1.3-6.1c.2-2.6.4-6.1.4-10.5.1-3.5.1-6.4-.1-8.7z"/><path d="M190.9 298.8l-34.2 11.8c-1.3.3-2.5.8-3.4 1.6-.9.8-1.7 1.9-2.2 3.3-.6 1.4-1 3.4-1.2 5.9-.2 2.5-.3 5.8-.3 9.8 0 3.5.1 6.3.3 8.6.2 2.3.6 4 1.2 5.3.6 1.3 1.3 2.2 2.2 2.7.8.5 1.9.8 3 .8.6 0 1.3 0 1.9-.1l2.1-.3c.8-.2 1.6-.4 2.5-.6.9-.2 1.9-.5 2.9-.8l77.6-28.3-52.4-19.7zm175.7-48.1c0-4.5-.2-8.3-.5-11.3s-.8-5.5-1.4-7.3c-.6-1.9-1.5-3.3-2.5-4.4-1.1-1.1-2.3-1.9-3.8-2.5l-193.7-68.1c-1.8-.6-3.4-1.1-4.8-1.5-1.4-.4-2.4-.6-3.1-.7-.7-.1-1.2-.1-1.7-.1-1.2 0-2.3.3-3.2.9-.9.6-1.6 1.6-2.1 3.1-.5 1.4-.8 3.3-1 5.7-.1 2.3-.2 5.2-.2 8.7 0 4.4.2 7.9.4 10.5.2 2.6.7 4.7 1.3 6.1s1.4 2.5 2.3 3.2c.9.7 2 1.3 3.4 1.9l168.1 56.5 2.7.9-2.7.7-120.9 41.6 52.6 19.2 102.8-37.5c1.7-.6 3-1.4 4-2.4s1.9-2.5 2.5-4.4c.6-2 1-4.5 1.2-7.5.2-3 .3-6.8.3-11.3z"/><path d="M254.3 106.7c81 0 146.7 65.7 146.7 146.7S335.3 400 254.3 400s-146.7-65.7-146.7-146.7 65.7-146.6 146.7-146.6m0-16c-22 0-43.3 4.3-63.3 12.8-19.4 8.2-36.8 19.9-51.7 34.9-14.9 14.9-26.7 32.3-34.9 51.7-8.5 20.1-12.8 41.4-12.8 63.3s4.3 43.3 12.8 63.3c8.2 19.4 19.9 36.8 34.9 51.7 14.9 14.9 32.3 26.7 51.7 34.9 20.1 8.5 41.4 12.8 63.3 12.8s43.3-4.3 63.3-12.8c19.4-8.2 36.8-19.9 51.7-34.9 14.9-14.9 26.7-32.3 34.9-51.7 8.5-20.1 12.8-41.4 12.8-63.3s-4.3-43.3-12.8-63.3c-8.2-19.4-19.9-36.8-34.9-51.7-14.9-14.9-32.3-26.7-51.7-34.9-20-8.5-41.3-12.8-63.3-12.8z"/></svg>